<?xml version="1.0" encoding="utf-8"?>
<!-- Generator: Adobe Illustrator 24.1.2, SVG Export Plug-In . SVG Version: 6.00 Build 0)  -->
<svg version="1.1" id="Layer_1" xmlns="http://www.w3.org/2000/svg" xmlns:xlink="http://www.w3.org/1999/xlink" x="0px" y="0px"
	 viewBox="0 0 220 220" style="enable-background:new 0 0 220 220;" xml:space="preserve">
<style type="text/css">
	.st0{fill:#0A7C10;}
</style>
<path class="st0" d="M97.1,0C42.4,6.4,0,53.1,0,109.7s42.4,103.2,97.1,109.6v-36.6c-34.6-6.1-60.9-36.5-60.9-73s26.3-66.9,60.9-73V0
	z M122.9,0v36.6c34.6,6.1,60.9,36.5,60.9,73s-26.3,66.9-60.9,73v36.6c54.7-6.4,97.1-53.1,97.1-109.6S177.6,6.4,122.9,0z"/>
<path d="M148.2,64.9c-10.3-5.2-21-23.1-23.6-18.8c-3.5,5.1-7.9,8-12.3,9.5c0-8.7-0.1-6,1.1-8.4c1.7-2.5,1.7-7.5,0.1-10.2
	c-2.9-5.3-7.9-0.3-7.2,6.3c0.1,2.4,1.3,4,2.2,5.5c0.2,2.2,0.1,4.5,0.1,6.8c-3.8-1.3-7.5-3.6-10.7-7.3c-1-1.1-1.9-3.4-3.2-2.7
	c-4.8,2-12.5,14.1-21.4,19.1c-2.5,1.5-5.3,1.2-7.9,2.5v0.5c2.9,1.8,6,1.6,9,0.7c0.9,1.4,0.1,3.3,6.5-0.3c1.3,2.2,3.1,0.7,4.5,0.1
	c0.8-0.5,1.6,0.2,2.4,0.4c1.1,0.5,2.1-0.3,3.2-0.4c1,0.1,1.9,0.6,2.9,0.4c1-0.1,1.9-0.9,2.9-1.4c0.9,0.2,1.8,0.8,2.8,0.5
	c1-0.3,1.8-1.2,2.7-1.9c1.9-0.2,1.6,2.2,6.4-3.3c0.1,13.7,0.3,27.5,0.3,41.2c-7-4.9-16.2-6.2-17.6-11c-0.5-3.6,1.3-6.9,3.1-7.9
	c2.1-0.7,4.2-0.2,6.3-0.8c2.2-0.7,3.1-1.9,5.1-4.9c0.2-0.2,0.1-0.7-0.1-0.9c-2.9-2.7-2.6-0.1-7.4-3.7c-1-0.8-2.1,1.7-3.8,3
	c-2.3,1.8-4.5,4.2-5.9,7.9c-1.5,3.9-1.1,9.4,0.5,12.9c3.1,6.5,10,7.8,16.5,10.9c-1,1.4-2,2.8-2.8,4.6c-2.1,4.5-3.1,10.6-2.5,16.4
	c0.7,5.5,3.7,8.8,6.3,11.5c-2,2.3-3.9,4.9-5,8.7c-3.1,11.2,1.8,15.8,7.2,22.6c-1.8,3.8-4.3,10.3-2.9,14.6c0.7-4.2,0.1-5.8,3.5-11.4
	c0.1,4.4,0.1,8.9,0.1,13.3c0.5,0,1,0,1.5,0c0-4.4,0-8.9,0.1-13.3c3.6,5.9,2.7,7.1,3.5,11.4c0.3-1.1,0.6-2.3,0.4-3.5
	c-0.3-4.2-1.7-7.8-3.3-11c5-6.1,9.4-10.5,7.8-20c-0.8-5-3.2-8.6-5.6-11.4c5.4-5.3,7.6-10.3,5.9-20.9c-0.8-4.7-2.8-8.5-4.9-11.5
	c4.7-2.2,9.8-3.2,14.2-7.4c3.8-3.6,7.3-15.8-2.8-24.1c-1.2-0.9-2.2-2.8-3.4-3.3c-1.1-0.4-1.9,1.5-3.7,1.9c-2.3,0.5-5.6,1-4.4,2.9
	c1.1,1.6,2.4,3.6,3.8,4.3c2.3,1.1,4.7,0.6,7,1.1c2,0.6,4,3.8,3.7,7.6c-0.7,5.2-10.1,6.4-17.6,11.5c0-13.7,0.2-27.5,0.3-41.2
	c4.6,5.3,4.3,3.3,6.4,3.3c0.9,0.6,1.7,1.7,2.7,1.9c0.9,0.3,1.9-0.3,2.8-0.5c1,0.4,1.9,1.2,2.9,1.4c1,0.2,1.9-0.3,2.9-0.4
	c1.1,0.2,2.1,1,3.2,0.4c0.8-0.2,1.6-0.9,2.4-0.4c1.5,0.6,3.3,2.2,4.5-0.1c5.9,3.5,5.8,1.7,6.5,0.3c3,1,6.1,0.8,9-0.5v-0.6
	C153.2,65.7,150.6,66.2,148.2,64.9L148.2,64.9z"/>
</svg>
